<svg xmlns="http://www.w3.org/2000/svg" xmlns:xlink="http://www.w3.org/1999/xlink" viewBox="0 0 430 430" width="430" height="430" preserveAspectRatio="xMidYMid meet" style="width: 100%; height: 100%; transform: translate3d(0px, 0px, 0px); content-visibility: visible;"><defs><clipPath id="__lottie_element_2"><rect width="430" height="430" x="0" y="0"/></clipPath><clipPath id="__lottie_element_4"><path d="M0,0 L430,0 L430,430 L0,430z"/></clipPath><g id="__lottie_element_14"><g transform="matrix(1,0,0,1,215,215)" opacity="1" style="display: block;"><g opacity="1" transform="matrix(1,0,0,1,0,0)"><path fill="rgb(255,0,0)" fill-opacity="1" d=" M-150,-140 C-150,-140 -149.5,50 -149.5,50 C-149.5,50 151,50 151,50 C151,50 151,50 151,50 C151,50 150,-139.75 150,-139.75 C150,-139.75 -150,-140 -150,-140z"/></g></g></g><mask id="__lottie_element_14_1" mask-type="alpha"><use xmlns:ns1="http://www.w3.org/1999/xlink" ns1:href="#__lottie_element_14"/></mask></defs><g clip-path="url(#__lottie_element_2)"><g clip-path="url(#__lottie_element_4)" transform="matrix(1,0,0,1,0,0)" opacity="1" style="display: block;"><g transform="matrix(1,0,0,1,215,170)" opacity="1" style="display: block;"><g opacity="1" transform="matrix(1,0,0,1,0,0)"><path class="tertiary" fill="rgb(75,179,253)" fill-opacity="1" d=" M155,-100 C155,-100 -155,-100 -155,-100 C-155,-100 -155,100 -155,100 C-155,100 155,100 155,100 C155,100 155,-100 155,-100z"/></g><g opacity="0.5" transform="matrix(1,0,0,1,-140,0)" style="mix-blend-mode: multiply;"><path class="tertiary" fill="rgb(75,179,253)" fill-opacity="1" d=" M10,-95 C10,-95 -10,-95 -10,-95 C-10,-95 -10,95 -10,95 C-10,95 10,95 10,95 C10,95 10,-95 10,-95z"/></g><g opacity="1" transform="matrix(1,0,0,1,0,-10)"><path class="secondary" fill="rgb(58,51,71)" fill-opacity="1" d=" M150,-85 C150,-85 150,105 150,105 C150,105 0,105 0,105 C0,105 -150,105 -150,105 C-150,105 -150,-85 -150,-85 C-150,-85 150,-85 150,-85z M-170,105 C-170,105 170,105 170,105 C170,105 170,-85 170,-85 C170,-96.0459976196289 161.04600524902344,-105 150,-105 C150,-105 -150,-105 -150,-105 C-161.04600524902344,-105 -170,-96.0459976196289 -170,-85 C-170,-85 -170,105 -170,105z"/></g><g opacity="0.5" transform="matrix(1,0,0,1,-150,-10)" style="mix-blend-mode: multiply;"><path class="secondary" fill="rgb(58,51,71)" fill-opacity="1" d=" M-20,-85 C-20,-85 -20,105 -20,105 C-20,105 0,105 0,105 C0,105 0,-85 0,-85 C0,-96.0459976196289 8.954000473022461,-105 20,-105 C20,-105 0,-105 0,-105 C-11.045999526977539,-105 -20,-96.0459976196289 -20,-85z"/></g><g opacity="1" transform="matrix(1,0,0,1,0,120)"><path class="quaternary" fill="rgb(235,230,239)" fill-opacity="1" d=" M-170,5 C-170,5 -170,-25 -170,-25 C-170,-25 170,-25 170,-25 C170,-25 170,5 170,5 C170,16.04599952697754 161.04600524902344,25 150,25 C150,25 -150,25 -150,25 C-161.04600524902344,25 -170,16.04599952697754 -170,5z"/></g><g opacity="0.5" transform="matrix(1,0,0,1,-150,120)" style="mix-blend-mode: multiply;"><path class="quaternary" fill="rgb(235,230,239)" fill-opacity="1" d=" M-20,-25 C-20,-25 -20,5 -20,5 C-20,16.04599952697754 -11.045999526977539,25 0,25 C0,25 20,25 20,25 C8.954000473022461,25 0,16.04599952697754 0,5 C0,5 0,-25 0,-25 C0,-25 -20,-25 -20,-25z"/></g></g><g transform="matrix(1,0,0,1,215,345)" opacity="1" style="display: block;"><g opacity="1" transform="matrix(1,0,0,1,0,0)"><path class="quaternary" fill="rgb(235,230,239)" fill-opacity="1" d=" M35,30 C35,30 30,-30 30,-30 C30,-30 -30,-30 -30,-30 C-30,-30 -35,30 -35,30 C-35,30 35,30 35,30z"/></g><g opacity="0.5" transform="matrix(1,0,0,1,-1.875,0)" style="mix-blend-mode: multiply;"><path class="quaternary" fill="rgb(235,230,239)" fill-opacity="1" d=" M-18.125,30 C-18.125,30 -14.375,-15 -14.375,-15 C-14.375,-15 33.125,-15 33.125,-15 C33.125,-15 31.875,-30 31.875,-30 C31.875,-30 -28.125,-30 -28.125,-30 C-28.125,-30 -33.125,30 -33.125,30 C-33.125,30 -18.125,30 -18.125,30z"/></g></g><g mask="url(#__lottie_element_14_1)" style="display: block;"><g transform="matrix(1,0,0,1,158,201)" opacity="0.5"><g opacity="0" transform="matrix(1,0,0,1,114,0)"><path stroke-linecap="round" stroke-linejoin="round" fill-opacity="0" class="quaternary" stroke="rgb(255,255,255)" stroke-opacity="1" stroke-width="24" d=" M156,-177 C156,-177 138.5,-177 138.5,-177 C138.5,-177 394,90.5 394,90.5 C394,90.5 419,91 419,91 C419,91 156,-177 156,-177z"/><path class="quaternary" fill="rgb(255,255,255)" fill-opacity="1" d=" M156,-177 C156,-177 138.5,-177 138.5,-177 C138.5,-177 394,90.5 394,90.5 C394,90.5 419,91 419,91 C419,91 156,-177 156,-177z"/></g><g opacity="0" transform="matrix(1,0,0,1,-418,0)"><path stroke-linecap="round" stroke-linejoin="round" fill-opacity="0" class="quaternary" stroke="rgb(255,255,255)" stroke-opacity="1" stroke-width="24" d=" M156,-177 C156,-177 138.5,-177 138.5,-177 C138.5,-177 394,90.5 394,90.5 C394,90.5 419,91 419,91 C419,91 156,-177 156,-177z"/><path class="quaternary" fill="rgb(255,255,255)" fill-opacity="1" d=" M156,-177 C156,-177 138.5,-177 138.5,-177 C138.5,-177 394,90.5 394,90.5 C394,90.5 419,91 419,91 C419,91 156,-177 156,-177z"/></g><g opacity="0" transform="matrix(1,0,0,1,-418,0)"><path stroke-linecap="round" stroke-linejoin="round" fill-opacity="0" class="quaternary" stroke="rgb(255,255,255)" stroke-opacity="1" stroke-width="24" d=" M156,-177 C156,-177 138.5,-177 138.5,-177 C138.5,-177 394,90.5 394,90.5 C394,90.5 419,91 419,91 C419,91 156,-177 156,-177z"/><path class="quaternary" fill="rgb(255,255,255)" fill-opacity="1" d=" M156,-177 C156,-177 138.5,-177 138.5,-177 C138.5,-177 394,90.5 394,90.5 C394,90.5 419,91 419,91 C419,91 156,-177 156,-177z"/></g></g></g><g transform="matrix(1,0,0,1,215,215)" opacity="1" style="display: block;"><g opacity="1" transform="matrix(1,0,0,1,0,0)"><path stroke-linecap="round" stroke-linejoin="round" fill-opacity="0" class="primary" stroke="rgb(18,19,49)" stroke-opacity="1" stroke-width="7" d=" M-170,50.03099822998047 C-170,50.03099822998047 170,50.03099822998047 170,50.03099822998047 M-70,160 C-70,160 70,160 70,160 M-30,100 C-30,100 -35,160 -35,160 M35,160 C35,160 30,100 30,100 M-150,-160 C-161.04600524902344,-160 -170,-151.04600524902344 -170,-140 C-170,-140 -170,80 -170,80 C-170,91.0459976196289 -161.04600524902344,100 -150,100 C-150,100 150,100 150,100 C161.04600524902344,100 170,91.0459976196289 170,80 C170,80 170,-140 170,-140 C170,-151.04600524902344 161.04600524902344,-160 150,-160 C150,-160 -150,-160 -150,-160z"/></g><g opacity="1" transform="matrix(0.9999951720237732,0,0,1,0,5)"><path stroke-linecap="round" stroke-linejoin="round" fill-opacity="0" class="primary" stroke="rgb(18,19,49)" stroke-opacity="1" stroke-width="20" d=" M0.028999999165534973,70.17900085449219 C0.028999999165534973,70.17900085449219 -0.125,70.08499908447266 -0.125,70.08499908447266"/></g></g></g></g></svg>